<?xml version="1.0" standalone="no"?><!DOCTYPE svg PUBLIC "-//W3C//DTD SVG 1.1//EN" "http://www.w3.org/Graphics/SVG/1.1/DTD/svg11.dtd"><svg t="1745572805108" class="icon" viewBox="0 0 1319 1024" version="1.1" xmlns="http://www.w3.org/2000/svg" p-id="12946" xmlns:xlink="http://www.w3.org/1999/xlink" width="329.75" height="256"><path d="M741.782903 1023.999722h-1.366463c-1.126067-0.063262-2.758231-0.177134-4.719359-0.341616a213.826193 213.826193 0 0 1-65.261273-16.511431 261.336096 261.336096 0 0 1-66.564473-39.943745c-39.842526-32.554722-63.907462-65.792675-87.175294-97.942519-17.156705-23.710668-34.908075-48.218439-59.466456-73.055174-16.321644-16.524083-53.140237-53.734902-103.522244-79.356087a367.135778 367.135778 0 0 1-45.687951 76.117063c-38.994812 49.559598-86.441453 79.41935-137.19038 86.365539-19.82637 2.707622-72.435205 9.906859-117.579101-25.191003-42.145269-32.769813-51.17911-81.127429-53.140238-100.397092a22.141766 22.141766 0 0 1 8.71753-19.889631c34.617069-26.064021 72.852735-47.750299 110.556998-62.730785 67.146486-26.658686 131.762484-32.491459 192.064001-17.33384 89.566605 22.521339 153.258975 87.010812 177.247997 111.34145 26.911734 27.240698 45.662647 53.140237 63.793589 78.204716 22.597253 31.226216 43.941915 60.7317 79.343436 89.629867a217.153784 217.153784 0 0 0 55.367066 33.149386 170.04876 170.04876 0 0 0 52.241914 13.373627l1.948476 0.151829 14.132772-1.429726A558.731639 558.731639 0 0 0 1074.124478 717.899302l38.653197 21.597711a603.053127 603.053127 0 0 1-346.12008 281.630605 22.16707 22.16707 0 0 1-4.428353 0.910976l-18.21951 1.859908a22.091156 22.091156 0 0 1-2.226829 0.10122zM46.164544 761.436339c3.47942 16.448169 12.234907 40.4878 34.31341 57.707768 30.36585 23.660058 66.868132 18.674998 84.379106 16.283687 39.716001-5.427896 76.192978-28.936124 108.406084-69.879413a319.474046 319.474046 0 0 0 39.424995-65.476363q-5.921341-1.834603-12.007163-3.365549c-51.103195-12.854876-106.584133-7.591462-164.924523 15.537193a434.775709 434.775709 0 0 0-89.591909 49.192677z" p-id="12947"></path><path d="M1241.630098 755.072163q-0.898323 0-1.809299-0.075914l-87.010812-7.11067h-0.594665c-81.987795-8.932621-151.070103-37.096947-205.336407-83.708527-8.059603-6.920883-13.765852-12.551218-16.827742-15.57515l-1.265244-1.265244a523.583167 523.583167 0 0 0-169.99815-107.153493c-51.229719-19.965546-106.837182-32.896337-165.27879-38.235666-93.628037-8.654267-163.988242 4.757316-172.705772 6.528658a983.284178 983.284178 0 0 0-195.556073 86.846331c-84.632154 49.357159-118.287638 86.340233-138.164617 113.036876a350.168859 350.168859 0 0 0-25.507314 39.602129l-38.754416-21.395271a394.540958 394.540958 0 0 1 28.746338-44.625147c22.382162-30.024234 59.808072-71.448314 151.310499-124.917515a1010.373046 1010.373046 0 0 1 126.891296-62.566304 510.095669 510.095669 0 0 1 38.741763-185.851654 504.035151 504.035151 0 0 1 105.964164-160.508821 492.875702 492.875702 0 0 1 157.33306-108.33017 487.422501 487.422501 0 0 1 385.658946 0 492.875702 492.875702 0 0 1 157.33306 108.33017 504.047804 504.047804 0 0 1 105.964164 160.521474 515.434998 515.434998 0 0 1-19.560668 434.623879 22.141766 22.141766 0 0 1-19.573321 11.830029z m-84.872551-51.280329l71.815235 5.870731a470.227839 470.227839 0 0 0 46.814019-204.589914c0-123.171479-46.940543-238.941282-132.167362-325.977399S944.993702 44.308836 824.694326 44.308836 591.23155 92.147702 506.118603 179.069947c-78.786728 80.45685-124.841601 185.472081-131.370258 298.167342q16.675913-5.946646 33.617526-11.387194 0.974238-0.316311 1.97378-0.531402c3.251676-0.708536 80.785813-17.409754 187.256075-7.591463 62.528346 5.820121 122.171936 19.585973 177.247996 41.095117A567.651607 567.651607 0 0 1 959.139127 615.00968c0.46814 0.442835 1.151372 1.113414 2.062347 2.011738 2.682317 2.644359 7.667377 7.591462 14.562955 13.487498 47.294811 40.639629 108.190993 65.286577 180.993118 73.282918z" p-id="12948"></path><path d="M1077.312893 699.452048l-40.652282-17.548931c36.363105-84.214624 54.405481-169.251656 53.557768-252.757743a564.058315 564.058315 0 0 0-37.463868-196.024214c-41.171032-107.925292-101.750902-170.997692-102.358219-171.630314l31.757618-30.859295c2.732926 2.821494 67.576669 70.3349 111.974072 186.71202a608.190017 608.190017 0 0 1 40.361275 211.37162c0.885671 89.718434-18.371339 180.815984-57.176364 270.736857zM643.9163 491.521891c-4.542225-70.423467 2.201524-178.007143 60.099077-290.613836A558.47859 558.47859 0 0 1 868.977857 7.654725l26.253808 35.679873a513.967315 513.967315 0 0 0-151.82925 177.842661c-53.266762 103.598158-59.466456 202.654091-55.278499 267.510486z" p-id="12949"></path></svg>