<?xml version="1.0" standalone="no"?><!DOCTYPE svg PUBLIC "-//W3C//DTD SVG 1.1//EN" "http://www.w3.org/Graphics/SVG/1.1/DTD/svg11.dtd"><svg t="1745572418302" class="icon" viewBox="0 0 1054 1024" version="1.1" xmlns="http://www.w3.org/2000/svg" p-id="5471" xmlns:xlink="http://www.w3.org/1999/xlink" width="263.5" height="256"><path d="M915.576471 0H129.505882c-18.070588 0-30.117647 15.058824-30.117647 30.117647v114.447059L0 960.752941c0 9.035294 3.011765 18.070588 6.023529 24.094118 6.023529 6.023529 15.058824 9.035294 24.094118 9.035294H1024v-3.011765-3.011764-3.011765-3.011765-3.011765l-69.270588-572.235294-30.117647-243.952941V30.117647c21.082353-15.058824 9.035294-30.117647-9.035294-30.117647z m-237.929412 936.658824c-292.141176 0-530.070588-237.929412-530.070588-530.070589V246.964706L156.611765 180.705882h153.6v39.152942c0 259.011765 207.811765 466.823529 466.823529 466.823529 18.070588 0 30.117647-15.058824 30.117647-30.117647s-15.058824-30.117647-30.117647-30.117647c-222.870588 0-403.576471-183.717647-403.57647-406.588235V180.705882h189.741176c15.058824 138.541176 132.517647 246.964706 274.070588 246.964706h84.329412l63.247059 512H677.647059z m210.823529-758.964706l21.082353 183.717647h-75.294117c-108.423529 0-195.764706-81.317647-210.82353-183.717647h265.035294zM159.623529 60.235294h725.835295v54.211765H159.623529V60.235294zM66.258824 936.658824l45.17647-370.447059c45.176471 162.635294 159.623529 295.152941 307.2 370.447059H66.258824z m819.2-313.22353c18.070588 0 30.117647 15.058824 30.117647 30.117647 0 18.070588-15.058824 30.117647-30.117647 30.117647-18.070588 0-30.117647-15.058824-30.117648-30.117647 0-18.070588 15.058824-30.117647 30.117648-30.117647z" fill="#000000" p-id="5472"></path></svg>